<?xml version="1.0" encoding="UTF-8"?>
<!DOCTYPE svg PUBLIC "-//W3C//DTD SVG 1.1//EN" "http://www.w3.org/Graphics/SVG/1.1/DTD/svg11.dtd">
<svg xmlns="http://www.w3.org/2000/svg" version="1.1" width="512px" height="512px" style="shape-rendering:geometricPrecision; text-rendering:geometricPrecision; image-rendering:optimizeQuality; fill-rule:evenodd; clip-rule:evenodd" xmlns:xlink="http://www.w3.org/1999/xlink">
<g><path style="opacity:1" fill="#7d81e6" d="M 34.5,-0.5 C 108.167,-0.5 181.833,-0.5 255.5,-0.5C 255.5,20.5 255.5,41.5 255.5,62.5C 253.353,58.189 250.02,55.0223 245.5,53C 235.167,52.3333 224.833,52.3333 214.5,53C 205.292,58.4276 203.126,65.9276 208,75.5C 209.873,77.7089 212.04,79.5422 214.5,81C 224.833,81.6667 235.167,81.6667 245.5,81C 250.888,78.7901 254.221,74.9568 255.5,69.5C 255.5,91.1667 255.5,112.833 255.5,134.5C 170.167,134.5 84.8333,134.5 -0.5,134.5C -0.5,101.167 -0.5,67.8333 -0.5,34.5C 4.83333,16.5 16.5,4.83333 34.5,-0.5 Z"/></g>
<g><path style="opacity:1" fill="#5e69e2" d="M 255.5,-0.5 C 329.167,-0.5 402.833,-0.5 476.5,-0.5C 494.5,4.83333 506.167,16.5 511.5,34.5C 511.5,67.8333 511.5,101.167 511.5,134.5C 426.167,134.5 340.833,134.5 255.5,134.5C 255.5,112.833 255.5,91.1667 255.5,69.5C 255.5,67.1667 255.5,64.8333 255.5,62.5C 255.5,41.5 255.5,20.5 255.5,-0.5 Z"/></g>
<g><path style="opacity:1" fill="#fcf4a0" d="M 54.5,52.5 C 64.8387,52.3335 75.172,52.5002 85.5,53C 95.5613,57.9599 98.0613,65.4599 93,75.5C 90.2217,78.8071 86.7217,80.9738 82.5,82C 73.0909,82.9168 63.7576,82.5835 54.5,81C 45.6428,75.4287 43.4761,67.9287 48,58.5C 50.0627,56.2659 52.2294,54.2659 54.5,52.5 Z"/></g>
<g><path style="opacity:1" fill="#8fe16c" d="M 134.5,52.5 C 144.839,52.3335 155.172,52.5002 165.5,53C 175.547,57.9367 178.047,65.4367 173,75.5C 170.519,79.3144 167.019,81.4811 162.5,82C 153.091,82.9168 143.758,82.5835 134.5,81C 125.643,75.4287 123.476,67.9287 128,58.5C 130.063,56.2659 132.229,54.2659 134.5,52.5 Z"/></g>
<g><path style="opacity:1" fill="#fe80a7" d="M 255.5,62.5 C 255.5,64.8333 255.5,67.1667 255.5,69.5C 254.221,74.9568 250.888,78.7901 245.5,81C 235.167,81.6667 224.833,81.6667 214.5,81C 212.04,79.5422 209.873,77.7089 208,75.5C 203.126,65.9276 205.292,58.4276 214.5,53C 224.833,52.3333 235.167,52.3333 245.5,53C 250.02,55.0223 253.353,58.189 255.5,62.5 Z"/></g>
<g><path style="opacity:1" fill="#f8f8f8" d="M -0.5,134.5 C 84.8333,134.5 170.167,134.5 255.5,134.5C 255.5,175.5 255.5,216.5 255.5,257.5C 225.346,265.152 209.346,284.485 207.5,315.5C 208.747,347.337 224.747,367.337 255.5,375.5C 255.5,420.833 255.5,466.167 255.5,511.5C 181.833,511.5 108.167,511.5 34.5,511.5C 16.4913,506.158 4.82461,494.491 -0.5,476.5C -0.5,362.5 -0.5,248.5 -0.5,134.5 Z"/></g>
<g><path style="opacity:1" fill="#e1def3" d="M 255.5,134.5 C 340.833,134.5 426.167,134.5 511.5,134.5C 511.5,248.5 511.5,362.5 511.5,476.5C 506.167,494.5 494.5,506.167 476.5,511.5C 402.833,511.5 329.167,511.5 255.5,511.5C 255.5,466.167 255.5,420.833 255.5,375.5C 287.034,379.486 309.534,367.152 323,338.5C 332.621,307.027 323.788,282.194 296.5,264C 283.528,257.219 269.861,255.052 255.5,257.5C 255.5,216.5 255.5,175.5 255.5,134.5 Z"/></g>
<g><path style="opacity:1" fill="#10799c" d="M 57.5,256.5 C 71.5594,256.071 85.5594,256.571 99.5,258C 117.519,265.05 125.019,278.216 122,297.5C 121.097,301.805 119.263,305.639 116.5,309C 133.609,324.738 136.109,342.572 124,362.5C 117.658,370.256 109.491,374.756 99.5,376C 85.5,376.667 71.5,376.667 57.5,376C 55.3762,374.878 53.5429,373.378 52,371.5C 50.353,335.56 50.0196,299.56 51,263.5C 52.6941,260.642 54.8607,258.309 57.5,256.5 Z"/></g>
<g><path style="opacity:1" fill="#0b4960" d="M 255.5,375.5 C 254.874,368.416 255.541,361.75 257.5,355.5C 282.379,358.651 298.545,348.318 306,324.5C 307.984,295.812 294.651,279.812 266,276.5C 263.152,276.798 260.319,277.131 257.5,277.5C 255.541,271.25 254.874,264.584 255.5,257.5C 269.861,255.052 283.528,257.219 296.5,264C 323.788,282.194 332.621,307.027 323,338.5C 309.534,367.152 287.034,379.486 255.5,375.5 Z"/></g>
<g><path style="opacity:1" fill="#0c485f" d="M 397.5,256.5 C 410.389,255.652 422.722,257.818 434.5,263C 438.241,264.738 441.408,267.238 444,270.5C 445.833,281.333 441.333,285.833 430.5,284C 406.141,270.669 386.308,275.502 371,298.5C 362.268,323.323 369.435,341.823 392.5,354C 414.412,360.818 429.579,353.651 438,332.5C 438.495,330.527 438.662,328.527 438.5,326.5C 430.389,326.935 422.389,326.435 414.5,325C 410.797,321.604 409.631,317.437 411,312.5C 412.167,310 414,308.167 416.5,307C 428.5,306.333 440.5,306.333 452.5,307C 455.196,307.69 457.363,309.19 459,311.5C 461.681,335.499 453.515,354.666 434.5,369C 402.732,383.183 376.565,376.349 356,348.5C 346.669,331.246 345.002,313.246 351,294.5C 360.4,274.257 375.9,261.591 397.5,256.5 Z"/></g>
<g><path style="opacity:1" fill="#147a9c" d="M 158.5,256.5 C 164.094,255.743 168.261,257.743 171,262.5C 171.5,293.832 171.667,325.165 171.5,356.5C 180.839,356.334 190.173,356.5 199.5,357C 205.777,359.389 207.943,363.889 206,370.5C 204.74,373.428 202.573,375.261 199.5,376C 185.833,376.667 172.167,376.667 158.5,376C 155.272,374.437 153.105,371.937 152,368.5C 151.333,333.5 151.333,298.5 152,263.5C 153.694,260.642 155.861,258.309 158.5,256.5 Z"/></g>
<g><path style="opacity:1" fill="#12799c" d="M 255.5,257.5 C 254.874,264.584 255.541,271.25 257.5,277.5C 257.158,278.338 256.492,278.672 255.5,278.5C 237.879,284.466 228.545,296.8 227.5,315.5C 227.596,335.246 236.929,348.246 255.5,354.5C 256.492,354.328 257.158,354.662 257.5,355.5C 255.541,361.75 254.874,368.416 255.5,375.5C 224.747,367.337 208.747,347.337 207.5,315.5C 209.346,284.485 225.346,265.152 255.5,257.5 Z"/></g>
<g><path style="opacity:1" fill="#f5f6f7" d="M 70.5,276.5 C 78.1739,276.334 85.8406,276.5 93.5,277C 102.399,280.933 104.899,287.433 101,296.5C 99.4571,298.378 97.6238,299.878 95.5,301C 87.2508,302.406 78.9174,302.906 70.5,302.5C 70.5,293.833 70.5,285.167 70.5,276.5 Z"/></g>
<g><path style="opacity:1" fill="#e1def3" d="M 257.5,355.5 C 257.158,354.662 256.492,354.328 255.5,354.5C 255.5,329.167 255.5,303.833 255.5,278.5C 256.492,278.672 257.158,278.338 257.5,277.5C 260.319,277.131 263.152,276.798 266,276.5C 294.651,279.812 307.984,295.812 306,324.5C 298.545,348.318 282.379,358.651 257.5,355.5 Z"/></g>
<g><path style="opacity:1" fill="#f7f8f8" d="M 255.5,278.5 C 255.5,303.833 255.5,329.167 255.5,354.5C 236.929,348.246 227.596,335.246 227.5,315.5C 228.545,296.8 237.879,284.466 255.5,278.5 Z"/></g>
<g><path style="opacity:1" fill="#f4f6f7" d="M 70.5,322.5 C 80.1724,322.334 89.8391,322.5 99.5,323C 110.783,327.74 114.283,335.907 110,347.5C 108.108,351.058 105.275,353.558 101.5,355C 91.2317,356.399 80.8983,356.899 70.5,356.5C 70.5,345.167 70.5,333.833 70.5,322.5 Z"/></g>
</svg>
